<svg xmlns="http://www.w3.org/2000/svg" version="1.1" xmlns:xlink="http://www.w3.org/1999/xlink" xmlns:svgjs="http://svgjs.dev/svgjs" width="1000" height="1000" viewBox="0 0 1000 1000"><rect width="1000" height="1000" fill="#214a35"></rect><g transform="matrix(0.7,0,0,0.7,150,150)"><svg viewBox="0 0 280 280" data-background-color="#214a35" preserveAspectRatio="xMidYMid meet" height="1000" width="1000" xmlns="http://www.w3.org/2000/svg" xmlns:xlink="http://www.w3.org/1999/xlink"><g id="tight-bounds" transform="matrix(1,0,0,1,0,0)"><svg viewBox="0 0 280 280" height="280" width="280"><g><svg viewBox="0 0 280 280" height="280" width="280"><g><svg viewBox="0 0 280 280" height="280" width="280"><g id="textblocktransform"><svg viewBox="0 0 280 280" height="280" width="280" id="textblock"><g><svg viewBox="0 0 280 280" height="280" width="280"><g transform="matrix(1,0,0,1,8.006734178511124,12.90127044462335)"><svg viewBox="0 0 263.98653164297775 254.1974591107533" height="254.1974591107533" width="263.98653164297775"><g><svg xmlns="http://www.w3.org/2000/svg" xmlns:xlink="http://www.w3.org/1999/xlink" version="1.1" x="0" y="0" viewBox="3.530475971188006 5.252824401012965 92.94146701299688 89.49503830248969" enable-background="new 0 0 100 100" xml:space="preserve" height="254.1974591107533" width="263.98653164297775" class="icon-kg-0" data-fill-palette-color="accent" id="kg-0"><path d="M93.268 15.296c-5.157-5.961-9.24-11.578-13.744-9.661s-3.287 8.753-2.567 16.602c0.722 7.894 6.292 10.584 10.785 10.324 0.641 4.071-0.088 9.066-4.998 12.543-8.753 6.197-12.171 3.633-15.636-8.892-0.104-0.372-2.431-14.956-10.982-17.686-5.26-1.678-11.388-1.187-19.318 3.062-10.56 5.656-15.912 11.674-16.353 18.393-0.654 9.935 9.57 17.286 18.591 23.771 3.544 2.55 4.295 3.608 6.621 5.865 2.533 2.457 1.714 5.163-1.917 7.108-4.662 2.497-5.775-0.547-12.33-11.337-2.137-3.519-4.155-6.842-6.352-9.204-5.207-5.608-9.994-3.772-11.815-2.726-3.047 1.756-5.285 6.359-3.583 16.031 1.471 8.362 10.718 18.094 10.091 19.137-1.12 1.867-15.9 0.229-16.229 1.475-0.191 0.729 17.629 5.636 20.725 4.468 2.871-1.084 2.735-5.065 1.282-9.03-0.713-1.948-1.87-4.239-3.093-6.667-1.95-3.866-4.159-8.247-4.968-11.896-0.5-2.256-0.311-3.368 0.057-3.977 1.458 1.537 3.648 5.146 5.184 7.675C25.59 75.4 28.846 80.76 32.932 84.418c7.156 6.408 13.859 4.968 18.223 2.631 2.313-1.239 9.524-5.001 9.807-11.9 0.775-18.952-39.459-27.963-18.418-40.111 15.387-8.884 16.4 25.863 25.412 28.575 5.654 1.701 14.227 1.865 21.673-6.648 6.469-7.397 5.837-18.562 3.048-26.264C96.298 27.813 98.736 21.618 93.268 15.296z" fill="#66b58e" data-fill-palette-color="accent"></path></svg></g></svg></g><g><path d="M140.257 3.773c0.637-0.015 1.15 0.163 1.54 0.534 0.397 0.371 0.604 0.894 0.619 1.567v0c0.017 0.703-0.171 1.268-0.563 1.695-0.385 0.427-0.929 0.648-1.632 0.665v0c-0.673 0.016-1.198-0.165-1.574-0.545-0.382-0.372-0.582-0.909-0.598-1.612v0c-0.016-0.673 0.172-1.224 0.565-1.65 0.393-0.42 0.941-0.638 1.643-0.654z" fill="#214a35" data-fill-palette-color="primary"></path><path d="M139.998 275.613c0.088 0 0.161 0.026 0.22 0.078 0.051 0.059 0.076 0.132 0.076 0.22v0c0 0.095-0.03 0.172-0.089 0.23-0.051 0.058-0.125 0.087-0.22 0.087v0c-0.095 0-0.168-0.026-0.219-0.077-0.051-0.051-0.076-0.128-0.076-0.231v0c0-0.088 0.03-0.161 0.088-0.22 0.051-0.058 0.125-0.087 0.22-0.087z" fill="#214a35" data-fill-palette-color="primary"></path><path d="M0 135.314c0-0.89 0.721-1.611 1.611-1.612 0.89 0 1.611 0.721 1.611 1.612 0 0.89-0.721 1.611-1.611 1.611-0.89 0-1.611-0.721-1.611-1.611z" fill="#214a35" data-fill-palette-color="primary"></path><path d="M276.778 135.314c0-0.89 0.721-1.611 1.611-1.612 0.89 0 1.611 0.721 1.611 1.612 0 0.89-0.721 1.611-1.611 1.611-0.89 0-1.611-0.721-1.611-1.611z" fill="#214a35" data-fill-palette-color="primary"></path></g></svg></g></svg></g></svg></g></svg></g><defs></defs></svg><rect width="280" height="280" fill="none" stroke="none" visibility="hidden"></rect></g></svg></g></svg>